<svg id="Layer_1" data-name="Layer 1" xmlns="http://www.w3.org/2000/svg" viewBox="0 0 1380 292"><defs><style>.cls-1{fill:#1d1d1b;fill-rule:evenodd;}</style></defs><g id="V4"><g id="Homepage_Desktop_02" data-name="Homepage Desktop 02"><g id="Group"><path id="Fill-1" class="cls-1" d="M1367.62,43.85a11.24,11.24,0,0,1-9.08,4.24c-7.55,0-12.67-5.52-12.67-18.8,0-6.57,1.17-11.31,3.58-14.13a11.84,11.84,0,0,1,18.17-.14c2.42,2.75,3.59,7.55,3.59,14.27S1370,41,1367.62,43.85M1358.54,3C1346.82,3,1337,11.2,1337,29.15c0,18.23,9.23,26.85,21.54,26.85S1380,47.17,1380,29.15C1380,11.34,1370.55,3,1358.54,3" transform="translate(0 0)"></path><path id="Fill-3" class="cls-1" d="M1320,4c-.22,7.41-5.11,11.18-13.59,11.18H1306v8.34h.81c5.62,0,10.3-3.49,12.57-8.91V56H1328V4Z" transform="translate(0 0)"></path><path id="Fill-5" class="cls-1" d="M202.5,143c0,69-39.77,108.64-109.13,108.64H40.72V41H89.87C165.66,41,202.5,74.34,202.5,143M90.26,4H0V289H93.76C186.43,289,244,233.06,244,143,244,53.37,189.4,4,90.26,4" transform="translate(0 0)"></path><polygon id="Fill-7" class="cls-1" points="1137.31 227.86 1132.35 240.41 1041.94 4 985 4 985 289 1024.6 289 1024.6 60.89 1112.35 288.06 1112.72 289 1150.72 289 1240.01 60.72 1240.01 289 1280 289 1280 4 1225.03 4 1137.31 227.86"></polygon><path id="Fill-9" class="cls-1" d="M696.55,183.11c-5,19.29-13.57,35.52-25.49,48.22-14.56,15.5-35.66,23-64.51,23-59.7,0-95.34-40.51-95.34-108.36,0-63.81,40-108.37,97.29-108.37,27.41,0,47.24,6.78,60.61,20.74,10.73,11.2,19,25.48,24.61,42.44l.43,1.33,40.53-11-.49-1.48C714.19,30.18,671.9,0,608.5,0,517.58,0,470,73.45,470,146c0,70.58,35.87,146,136.55,146,66.63,0,111.6-33.91,130-98.07l.42-1.44-40.07-10.82Z" transform="translate(0 0)"></path><polygon id="Fill-11" class="cls-1" points="796.41 162.91 931.05 162.91 931.05 128.79 796.41 128.79 796.41 40.57 964.22 40.57 964.22 4 756 4 756 289 965 289 965 252.05 796.41 252.05 796.41 162.91"></polygon><polygon id="Fill-13" class="cls-1" points="300.41 162.91 435.05 162.91 435.05 128.79 300.41 128.79 300.41 40.57 468.22 40.57 468.22 4 260 4 260 289 469 289 469 252.05 300.41 252.05 300.41 162.91"></polygon></g></g></g></svg>